<svg xmlns="http://www.w3.org/2000/svg" xmlns:xlink="http://www.w3.org/1999/xlink" width="1920" height="1080" fill="#333"><g id="Layer_1"><title>Layer 1</title><clipPath id="svg_10" transform="translate(666.259 0) translate(0 137.917)"><path d="m657.25867,665.78873l611.8,0l0,-802.75003l-611.8,0l0,802.75003z"/></clipPath><clipPath id="svg_1" transform="translate(666.259 0) translate(0 137.917)"><path fill-rule="evenodd" d="m663.90867,-137.4362l598.5,0l0,803.70003l-598.5,0l0,-803.70003zm-6.65,0.475"/></clipPath><clipPath id="svg_6" transform="translate(666.259 0) translate(0 137.917)"><path d="m663.90867,-137.4362l598.5,0l0,803.70003l-598.5,0l0,-803.70003zm-6.65,0.475"/></clipPath><clipPath id="svg_7" transform="translate(666.259 0) translate(0 137.917)"><path d="m657.25867,-137.9232l612,0l0,803.70003l-612,0l0,-803.70003z"/></clipPath><clipPath id="svg_2" transform="translate(666.259 0) translate(0 137.917)"><path d="m1239.65167,508.7298l-187.044,0l0,137.66701l187.044,0l0,-137.66701zm-187.045,0"/></clipPath><clipPath id="svg_3" transform="translate(666.259 0) translate(0 137.917)"><path fill-rule="evenodd" d="m952.64067,505.7088l291.80699,0l0,46.971l-291.80699,0l0,-46.971zm-295.382,-642.67"/></clipPath><clipPath id="svg_4" transform="translate(666.259 0) translate(0 137.917)"><path d="m663.90867,-137.4362l598.5,0l0,803.70003l-598.5,0l0,-803.70003zm-6.65,0.475"/></clipPath><clipPath id="svg_5" transform="translate(666.259 0) translate(0 137.917)"><path d="m657.25867,-137.9232l612,0l0,803.70003l-612,0l0,-803.70003z"/></clipPath><g id="svg_13" stroke="null"><path stroke="null" d="m379.29624,602.45975l0,-29.06543c0,-60.54994 -20.02568,-74.38239 -88.19665,-74.38239l-54.81143,0c-68.18007,0 -88.19665,13.83245 -88.19665,74.38239l0,29.06543c0,62.45975 19.54368,76.2831 88.19665,76.2831l54.81143,0c68.65297,0 88.19665,-13.82336 88.19665,-76.2831zm-152.53892,112.47847c-85.82304,0 -117.28027,-31.43904 -117.28027,-108.17686l0,-38.64174c0,-74.35511 33.36704,-104.86653 117.28027,-104.86653l75.31001,0c35.75884,0 59.58594,10.01284 76.74691,34.33103l0,-132.52234l37.66865,0l0,346.54791l-33.85813,0l0,-40.03317c-15.24207,35.27684 -42.88878,43.36169 -90.56118,43.36169l-65.30627,0"/><path stroke="null" d="m751.10816,562.43567c0,-1.93709 0,-3.84689 0,-5.73851c0,-48.62729 -23.8271,-57.68523 -83.41304,-57.68523l-60.53175,0c-58.16723,0 -83.42214,14.31445 -83.42214,63.42374l227.36693,0zm41.01535,16.18788c0,6.19323 0,12.37736 -0.49109,19.07078l-267.8912,0l0,13.33226c0,50.52801 20.49858,69.60788 84.36795,69.60788l63.87846,0c53.86562,0 79.61162,-12.85936 79.61162,-41.47007c0,-0.9549 0,-1.42781 0,-2.3918l40.52426,0c0,1.93709 0,4.29252 0,6.19323c0,46.73568 -37.65955,71.9724 -111.06885,71.9724l-73.41839,0c-88.67865,0 -122.9915,-30.51142 -122.9915,-105.81234l0,-39.06917c0,-76.2922 33.83994,-106.80362 122.9915,-106.80362l61.00466,0c90.58846,0 123.48259,28.12871 123.48259,115.37046"/><path stroke="null" d="m856.95688,711.6097l0,-245.019l37.65046,0l0,30.99342c15.73316,-28.11962 50.52801,-34.33103 110.11395,-34.33103c63.88755,0 99.1644,8.10303 114.89756,44.81678c16.20607,-31.46633 51.47382,-45.28968 107.26743,-45.28968c95.3266,0 133.94105,22.88129 133.94105,89.14246l0,159.68705l-35.74065,0l0,-149.17403c0,-22.89948 -1.446,-38.15974 -15.74226,-48.16348c-12.38646,-8.58503 -39.56936,-14.29626 -80.55743,-14.29626c-66.74317,0 -97.25459,15.72407 -97.25459,59.57685l0,152.05692l-37.16846,0l0,-152.55711c0,-47.1722 -16.69716,-60.04066 -92.97117,-60.04066c-74.35511,0 -106.30343,17.17006 -106.30343,63.87846l0,148.71931l-38.13246,0"/><path stroke="null" d="m1611.85766,678.74285c68.65297,0 88.66046,-13.82336 88.66046,-76.2831l0,-29.06543c0,-60.54994 -20.49858,-74.38239 -88.66046,-74.38239l-63.89665,0c-68.15279,0 -88.16937,13.83245 -88.16937,74.38239l0,29.06543c0,62.45975 19.52549,76.2831 88.16937,76.2831l63.89665,0zm-191.16247,-71.98149l0,-38.64174c0,-74.35511 33.35794,-104.86653 117.26208,-104.86653l84.38614,0c83.88595,0 117.26208,30.51142 117.26208,104.86653l0,38.64174c0,76.73782 -31.45723,108.17686 -117.26208,108.17686l-84.38614,0c-85.80485,0 -117.26208,-31.43904 -117.26208,-108.17686"/><path fill="#333" stroke="null" d="m1789.68787,673.28626l0,1.54603c0,3.61044 -0.79121,4.58353 -6.35693,4.58353c0,0 -12.05906,0 -13.37774,0l0,-10.73129c1.31868,0 13.37774,0 13.37774,0c5.56572,0 6.35693,0.99128 6.35693,4.60172zm5.62029,2.58279l0,-3.80142c0,-7.10266 -4.09244,-8.3122 -13.25041,-8.3122l-17.50655,0l0,33.28519l5.40202,0c0,0 0,-11.15872 0,-12.45921c1.30958,0 12.62291,0 12.62291,0c5.55663,0 6.97534,0.44562 6.97534,4.62901l0,7.8302l5.41112,0l0,-8.61231c0,-3.37399 -1.70973,-5.2747 -4.35618,-6.19323c3.11935,-1.07313 4.70176,-2.75558 4.70176,-6.36602"/><path fill="#333" stroke="null" d="m1753.9836,681.24378c0,-13.9143 11.31333,-25.22763 25.23672,-25.22763c13.9143,0 25.24581,11.31333 25.24581,25.22763c0,13.92339 -11.33151,25.24581 -25.24581,25.24581c-13.92339,0 -25.23672,-11.32242 -25.23672,-25.24581zm-6.06591,0c0,17.2792 14.03253,31.32082 31.30263,31.32082c17.25191,0 31.30263,-14.04162 31.30263,-31.32082c0,-17.25191 -14.05071,-31.30263 -31.30263,-31.30263c-17.2701,0 -31.30263,14.05071 -31.30263,31.30263"/></g></g></svg>